# Blender v2.91.0 OBJ File: 'Libro.blend'
# www.blender.org
mtllib Libro.mtl
o Plano
v -1.000000 0.000000 1.494517
v 1.000000 0.000000 1.494517
v -1.000000 0.000000 -1.494517
v 1.000000 0.000000 -1.494517
v -1.000000 0.403516 1.494517
v 1.000000 0.403516 1.494517
v -1.000000 0.403516 -1.494517
v 1.000000 0.403516 -1.494517
v -1.000000 0.460130 1.494517
v 1.000000 0.460130 1.494517
v -1.000000 0.460130 -1.494517
v 1.000000 0.460130 -1.494517
v -1.054269 0.000000 -1.494517
v -1.054269 0.000000 1.494517
v -1.054269 0.403516 -1.494517
v -1.054269 0.403516 1.494517
v -1.054269 0.460130 -1.494517
v -1.054269 0.460130 1.494517
v -1.000000 -0.052450 -1.494517
v -1.000000 -0.052450 1.494517
v 1.000000 -0.052450 1.494517
v 1.000000 -0.052450 -1.494517
v -1.054269 -0.052450 -1.494517
v -1.054269 -0.052450 1.494517
v -1.029378 -0.004287 1.443373
v 0.888419 -0.004287 1.443373
v 0.888419 -0.004287 -1.443373
v -1.029378 -0.004287 -1.443373
v -1.029378 0.407803 1.443373
v 0.888419 0.407803 1.443373
v 0.888419 0.407803 -1.443373
v -1.029378 0.407803 -1.443373
vt 0.760569 0.534439
vt 0.662180 0.534439
vt 0.662180 0.531859
vt 0.760569 0.531859
vt 0.774791 0.511860
vt 0.774791 0.413470
vt 0.777576 0.413470
vt 0.777576 0.511860
vt 0.787477 0.513305
vt 0.787477 0.414915
vt 0.789174 0.413470
vt 0.789174 0.507816
vt 0.785706 0.513305
vt 0.785706 0.414915
vt 0.787402 0.413470
vt 0.787402 0.507816
vt 0.789248 0.511861
vt 0.789248 0.413470
vt 0.790945 0.418959
vt 0.790945 0.513306
vt 0.780321 0.413470
vt 0.780321 0.511861
vt 0.777651 0.511861
vt 0.777651 0.413470
vt 0.662180 0.511859
vt 0.662180 0.413470
vt 0.760569 0.413470
vt 0.760569 0.511859
vt 0.771856 0.413470
vt 0.771856 0.511860
vt 0.769071 0.511860
vt 0.769072 0.413470
vt 0.768997 0.413470
vt 0.768997 0.511860
vt 0.766212 0.511860
vt 0.766212 0.413470
vt 0.768881 0.511935
vt 0.768881 0.514720
vt 0.766212 0.514720
vt 0.766212 0.511935
vt 0.662180 0.511934
vt 0.760569 0.511934
vt 0.760569 0.531784
vt 0.662180 0.531784
vt 0.771931 0.511860
vt 0.771931 0.413470
vt 0.774716 0.413470
vt 0.774716 0.511860
vt 0.766212 0.517579
vt 0.766212 0.514794
vt 0.768881 0.514794
vt 0.768881 0.517579
vt 0.766137 0.511934
vt 0.766137 0.531784
vt 0.763467 0.531784
vt 0.763467 0.511934
vt 0.768867 0.517654
vt 0.771536 0.517654
vt 0.771536 0.520234
vt 0.768867 0.520234
vt 0.783318 0.534529
vt 0.763467 0.534529
vt 0.763467 0.531859
vt 0.783318 0.531859
vt 0.851680 0.382695
vt 0.851680 0.586055
vt 0.648320 0.586055
vt 0.648320 0.382695
vt 0.590302 0.492941
vt 0.590302 0.667585
vt 0.585563 0.667585
vt 0.585563 0.492941
vt 0.782976 0.413470
vt 0.782976 0.511859
vt 0.780396 0.511859
vt 0.780396 0.413470
vt 0.783051 0.511859
vt 0.783051 0.413470
vt 0.785631 0.413470
vt 0.785631 0.511859
vt 0.768792 0.517654
vt 0.768792 0.520324
vt 0.766212 0.520324
vt 0.766212 0.517654
vt 0.600336 0.667583
vt 0.600336 0.492941
vt 0.604916 0.492941
vt 0.604916 0.667583
vt 0.216846 0.387979
vt 0.428088 0.387979
vt 0.428088 0.635068
vt 0.216846 0.635068
vt 0.223564 0.389761
vt 0.413260 0.389760
vt 0.413260 0.633677
vt 0.223564 0.633677
vt 0.431481 0.634845
vt 0.235063 0.634845
vt 0.235063 0.388593
vt 0.431481 0.388592
vt 0.621054 0.495506
vt 0.621054 0.670152
vt 0.618042 0.660409
vt 0.618042 0.492941
vt 0.761174 0.531995
vt 0.761174 0.512144
vt 0.763392 0.511934
vt 0.763392 0.532206
vt 0.760644 0.511859
vt 0.760644 0.413470
vt 0.766137 0.415153
vt 0.766137 0.510175
vt 0.647030 0.325240
vt 0.647030 0.499881
vt 0.637279 0.496892
vt 0.637279 0.328228
vt 0.783412 0.531996
vt 0.783412 0.512145
vt 0.785631 0.511934
vt 0.785631 0.532207
vn -1.0000 0.0000 0.0000
vn 0.0000 0.0000 -1.0000
vn -0.0000 0.9965 0.0835
vn 0.0000 -0.9965 -0.0835
vn 0.0000 -0.9965 0.0835
vn 0.0000 1.0000 0.0000
vn 0.0000 0.0000 1.0000
vn 1.0000 0.0000 0.0000
vn 0.0000 -1.0000 0.0000
vn -0.0000 0.9965 -0.0835
vn 0.8671 0.0000 0.4981
vn -0.0384 -0.9993 0.0000
vn -0.0384 0.9993 0.0000
vn 0.8671 0.0000 -0.4981
usemtl Libro
s off
f 14/1/1 13/2/1 23/3/1 24/4/1
f 8/5/2 7/6/2 11/7/2 12/8/2
f 4/9/3 3/10/3 28/11/3 27/12/3
f 6/13/4 5/14/4 29/15/4 30/16/4
f 7/17/5 8/18/5 31/19/5 32/20/5
f 9/21/6 11/22/6 17/23/6 18/24/6
f 9/25/6 10/26/6 12/27/6 11/28/6
f 5/29/7 6/30/7 10/31/7 9/32/7
f 6/33/8 8/34/8 12/35/8 10/36/8
f 11/37/2 7/38/2 15/39/2 17/40/2
f 13/41/1 14/42/1 16/43/1 15/44/1
f 15/45/1 16/46/1 18/47/1 17/48/1
f 5/49/7 9/50/7 18/51/7 16/52/7
f 7/53/2 3/54/2 13/55/2 15/56/2
f 1/57/7 14/58/7 24/59/7 20/60/7
f 1/61/7 5/62/7 16/63/7 14/64/7
f 20/65/9 19/66/9 22/67/9 21/68/9
f 19/69/9 20/70/9 24/71/9 23/72/9
f 3/73/2 4/74/2 22/75/2 19/76/2
f 2/77/7 1/78/7 20/79/7 21/80/7
f 13/81/2 3/82/2 19/83/2 23/84/2
f 4/85/8 2/86/8 21/87/8 22/88/8
f 27/89/2 28/90/2 32/91/2 31/92/2
f 25/93/7 26/94/7 30/95/7 29/96/7
f 26/97/8 27/98/8 31/99/8 30/100/8
f 1/101/10 2/102/10 26/103/10 25/104/10
f 3/105/11 7/106/11 32/107/11 28/108/11
f 8/109/12 6/110/12 30/111/12 31/112/12
f 2/113/13 4/114/13 27/115/13 26/116/13
f 5/117/14 1/118/14 25/119/14 29/120/14
