# Blender v2.91.0 OBJ File: 'Puerta.blend'
# www.blender.org
mtllib Puerta.mtl
o Plano_Plano.001
v -3.653911 0.144814 -0.198885
v 2.428383 0.144814 -0.198885
v -3.653911 12.726774 -0.198884
v 2.428383 12.726774 -0.198884
v -3.653911 0.144814 0.408047
v 2.428383 0.144814 0.408047
v -3.641722 12.683385 0.395672
v 2.428383 12.726774 0.408048
v -0.611202 13.671721 0.414215
v -0.611202 13.671721 -0.204650
v 0.332684 13.590785 0.414215
v 0.332684 13.590785 -0.204650
v 1.240297 13.351089 0.414215
v 1.240297 13.351089 -0.204650
v 2.076758 12.961845 0.414215
v 2.076758 12.961843 -0.204650
v -3.299156 12.961848 0.414215
v -3.299156 12.961848 -0.204650
v -2.462694 13.351091 0.414215
v -2.462694 13.351091 -0.204650
v -1.555081 13.590788 0.414215
v -1.555081 13.590787 -0.204650
v -3.667869 12.698409 -0.204650
v -3.669001 12.697599 0.414215
v -3.649476 6.217543 0.330673
v -3.649719 6.213936 0.319023
v 2.413249 12.721427 0.414215
v 2.404010 12.728028 -0.219894
v 2.428383 9.237863 0.408048
v 0.354368 7.999307 0.408047
v 2.407857 12.725278 -0.204650
vt 0.950672 0.070255
vt 0.950672 0.849349
vt 0.042525 0.849349
vt 0.042525 0.070255
vt 0.056707 0.036895
vt 0.935831 0.036895
vt 0.636057 0.542794
vt 0.935831 0.622568
vt 0.935831 0.847284
vt 0.058467 0.844491
vt 0.740594 0.080950
vt 0.740594 0.545835
vt 0.694204 0.545835
vt 0.701008 0.321590
vt 0.696834 0.321502
vt 0.695141 0.082553
vt 0.867986 0.307820
vt 0.867986 0.482637
vt 0.850887 0.482287
vt 0.850542 0.307819
vt 0.913652 0.152259
vt 0.913652 0.621697
vt 0.866809 0.621697
vt 0.866809 0.152259
vt 0.232869 0.348399
vt 0.702306 0.348399
vt 0.702306 0.395242
vt 0.572134 0.395242
vt 0.232869 0.395242
vt 0.872150 0.638367
vt 0.872150 0.621448
vt 0.899302 0.621448
vt 0.899302 0.638367
vt 0.898448 0.655793
vt 0.898448 0.672713
vt 0.872150 0.672713
vt 0.872150 0.655793
vt 0.903466 0.383979
vt 0.903466 0.367060
vt 0.928108 0.367060
vt 0.928108 0.383979
vt 0.913698 0.395278
vt 0.913698 0.412198
vt 0.903747 0.411909
vt 0.903466 0.395278
vt 0.928108 0.349887
vt 0.928108 0.366807
vt 0.903466 0.366807
vt 0.903466 0.349887
vt 0.650249 0.925769
vt 0.491331 0.925769
vt 0.332960 0.916628
vt 0.181218 0.898699
vt 0.153554 0.872669
vt 0.092469 0.856008
vt 0.912041 0.893144
vt 0.855593 0.904899
vt 0.713693 0.922829
vt 0.908681 0.604275
vt 0.908681 0.621195
vt 0.882383 0.621195
vt 0.882383 0.604275
vt 0.899302 0.638621
vt 0.899302 0.655540
vt 0.872150 0.655540
vt 0.872150 0.638621
vt 0.503268 0.226731
vt 0.518550 0.227191
vt 0.533259 0.228900
vt 0.546830 0.231791
vt 0.552296 0.233610
vt 0.453870 0.234913
vt 0.459832 0.232778
vt 0.473334 0.229580
vt 0.488000 0.227538
vt 0.813636 0.548772
vt 0.808126 0.307534
vt 0.813636 0.080950
vt 0.854977 0.648854
vt 0.871897 0.648888
vt 0.871897 0.660100
vt 0.854977 0.660100
vt 0.743163 0.361920
vt 0.743163 0.470217
vt 0.741274 0.470149
vt 0.941500 0.150148
vt 0.941500 0.411759
vt 0.505055 0.297899
vt 0.928073 0.458915
vt 0.927297 0.458601
vt 0.928073 0.431880
vn 0.0000 0.0000 -1.0000
vn -0.0012 0.0006 1.0000
vn -1.0000 0.0005 0.0094
vn -0.0036 0.9993 0.0361
vn 0.0000 -1.0000 -0.0000
vn 1.0000 0.0000 0.0000
vn -0.0854 -0.9963 0.0000
vn -0.2553 -0.9669 0.0000
vn -0.4219 -0.9066 0.0000
vn -0.5813 -0.8137 0.0000
vn 0.4219 -0.9066 0.0000
vn -0.0000 -0.0000 1.0000
vn 0.2553 -0.9669 0.0000
vn 0.0854 -0.9963 0.0000
vn -0.9998 0.0010 0.0206
vn 0.5813 -0.8137 -0.0000
vn 0.5813 0.8137 0.0000
usemtl Puerta
s off
f 1/1/1 3/2/1 4/3/1 2/4/1
f 5/5/2 6/6/2 30/7/2 29/8/2 8/9/2 7/10/2
f 3/11/3 1/12/3 5/13/3 26/14/3 25/15/3 7/16/3
f 4/17/4 3/18/4 7/19/4 8/20/4
f 1/21/5 2/22/5 6/23/5 5/24/5
f 2/25/6 4/26/6 8/27/6 29/28/6 6/29/6
f 9/30/7 10/31/7 12/32/7 11/33/7
f 11/34/8 12/35/8 14/36/8 13/37/8
f 13/38/9 14/39/9 16/40/9 15/41/9
f 15/42/10 16/43/10 28/44/10 27/45/10
f 17/46/11 18/47/11 20/48/11 19/49/11
f 12/50/12 10/51/12 22/52/12 20/53/12 18/54/12 23/55/12 31/56/12 16/57/12 14/58/12
f 19/59/13 20/60/13 22/61/13 21/62/13
f 21/63/14 22/64/14 10/65/14 9/66/14
f 9/67/1 11/68/1 13/69/1 15/70/1 27/71/1 24/72/1 17/73/1 19/74/1 21/75/1
f 7/76/15 25/77/15 5/78/15
f 24/79/16 23/80/16 18/81/16 17/82/16
f 5/83/15 25/84/15 26/85/15
f 29/86/12 30/87/12 6/88/12
f 31/89/17 28/90/17 16/91/17
