# Blender v2.91.0 OBJ File: 'Barco.blend'
# www.blender.org
mtllib Barco.mtl
o Plano
v -0.000000 0.157030 0.830420
v 0.000000 -0.246129 0.609328
v -0.000000 0.155641 -0.810864
v 0.000000 -0.246129 -0.609328
v -0.015400 0.157030 0.830420
v -0.015400 -0.246129 0.609328
v -0.015400 0.155641 -0.810864
v -0.015400 -0.246129 -0.609328
v -0.000000 0.112987 0.805405
v -0.000000 0.111598 -0.785850
v -0.010286 0.785965 0.026586
v -0.010286 0.140732 0.026586
v -0.010529 0.785965 0.026075
v -0.010529 0.140732 0.026075
v -0.010763 0.785965 0.024562
v -0.010763 0.140732 0.024562
v -0.010979 0.785965 0.022105
v -0.010979 0.140732 0.022105
v -0.011168 0.785965 0.018799
v -0.011168 0.140732 0.018799
v -0.011323 0.785965 0.014770
v -0.011323 0.140732 0.014770
v -0.011438 0.785965 0.010174
v -0.011438 0.140732 0.010174
v -0.011509 0.785965 0.005186
v -0.011509 0.140732 0.005186
v -0.011533 0.785965 -0.000000
v -0.011533 0.140732 -0.000000
v -0.011509 0.785965 -0.005187
v -0.011509 0.140732 -0.005187
v -0.011438 0.785965 -0.010174
v -0.011438 0.140732 -0.010174
v -0.011323 0.785965 -0.014771
v -0.011323 0.140732 -0.014771
v -0.011168 0.785965 -0.018799
v -0.011168 0.140732 -0.018799
v -0.010979 0.785965 -0.022106
v -0.010979 0.140732 -0.022106
v -0.010763 0.785965 -0.024562
v -0.010763 0.140732 -0.024562
v -0.010529 0.785965 -0.026075
v -0.010529 0.140732 -0.026075
v -0.010286 0.785965 -0.026586
v -0.010286 0.140732 -0.026586
v -0.010042 0.785965 -0.026075
v -0.010042 0.140732 -0.026075
v -0.009808 0.785965 -0.024562
v -0.009808 0.140732 -0.024562
v -0.009592 0.785965 -0.022106
v -0.009592 0.140732 -0.022106
v -0.009403 0.785965 -0.018799
v -0.009403 0.140732 -0.018799
v -0.009248 0.785965 -0.014771
v -0.009248 0.140732 -0.014771
v -0.009133 0.785965 -0.010174
v -0.009133 0.140732 -0.010174
v -0.009062 0.785965 -0.005187
v -0.009062 0.140732 -0.005187
v -0.009038 0.785965 -0.000000
v -0.009038 0.140732 -0.000000
v -0.009062 0.785965 0.005186
v -0.009062 0.140732 0.005186
v -0.009133 0.785965 0.010174
v -0.009133 0.140732 0.010174
v -0.009248 0.785965 0.014770
v -0.009248 0.140732 0.014770
v -0.009403 0.785965 0.018799
v -0.009403 0.140732 0.018799
v -0.009592 0.785965 0.022105
v -0.009592 0.140732 0.022105
v -0.009808 0.785965 0.024562
v -0.009808 0.140732 0.024562
v -0.010042 0.785965 0.026075
v -0.010042 0.140732 0.026075
v -0.009149 0.780426 -0.021832
v -0.009149 0.250146 -0.206155
v -0.009149 0.279130 -0.613256
v -0.009149 0.283526 -0.611728
v -0.012549 0.780673 0.021424
v -0.012549 0.250393 0.205747
v -0.012549 0.279377 0.612848
v -0.012549 0.283774 0.611320
vt 0.276094 0.421435
vt 0.276094 0.531686
vt 0.249094 0.518171
vt 0.249025 0.436309
vt 0.248961 0.531686
vt 0.221892 0.516812
vt 0.221961 0.434950
vt 0.248961 0.421435
vt 0.320442 0.421435
vt 0.320442 0.491091
vt 0.319226 0.491096
vt 0.319226 0.421440
vt 0.869219 0.733134
vt 0.869219 0.000369
vt 0.882008 0.000289
vt 0.882008 0.733054
vt 0.277256 0.503769
vt 0.277256 0.473576
vt 0.278291 0.473576
vt 0.278291 0.503769
vt 0.277192 0.473576
vt 0.277192 0.504463
vt 0.276158 0.504463
vt 0.276158 0.473576
vt 0.317687 0.421435
vt 0.317687 0.531690
vt 0.314727 0.530012
vt 0.314731 0.423117
vt 0.771112 0.469459
vt 0.771112 0.504851
vt 0.770494 0.504856
vt 0.770494 0.469465
vt 0.789926 0.463193
vt 0.789926 0.521406
vt 0.788911 0.521415
vt 0.788911 0.463202
vt 0.797095 0.456779
vt 0.797095 0.530666
vt 0.795806 0.530677
vt 0.795806 0.456790
vt 0.802440 0.447929
vt 0.802440 0.533548
vt 0.800946 0.533560
vt 0.800946 0.447941
vt 0.794041 0.456663
vt 0.794041 0.362194
vt 0.795690 0.362182
vt 0.795690 0.456651
vt 0.790284 0.362182
vt 0.790284 0.463065
vt 0.788523 0.463077
vt 0.788523 0.362194
vt 0.780871 0.467269
vt 0.780871 0.362195
vt 0.782704 0.362182
vt 0.782704 0.467256
vt 0.772883 0.362182
vt 0.772883 0.469330
vt 0.771013 0.469343
vt 0.771013 0.362194
vt 0.774985 0.469343
vt 0.774985 0.362195
vt 0.776855 0.362182
vt 0.776855 0.469330
vt 0.782820 0.467269
vt 0.782820 0.362195
vt 0.784654 0.362182
vt 0.784654 0.467256
vt 0.788407 0.362182
vt 0.788407 0.463065
vt 0.786647 0.463077
vt 0.786647 0.362194
vt 0.797571 0.456663
vt 0.797571 0.362194
vt 0.799219 0.362182
vt 0.799219 0.456651
vt 0.800830 0.362182
vt 0.800830 0.447801
vt 0.799335 0.447813
vt 0.799335 0.362194
vt 0.798501 0.456779
vt 0.798501 0.530666
vt 0.797211 0.530676
vt 0.797211 0.456790
vt 0.787663 0.463193
vt 0.787663 0.521407
vt 0.786647 0.521415
vt 0.786647 0.463202
vt 0.770378 0.469459
vt 0.770378 0.504851
vt 0.769761 0.504856
vt 0.769761 0.469465
vt 0.769645 0.469459
vt 0.769645 0.504851
vt 0.769027 0.504856
vt 0.769027 0.469465
vt 0.785786 0.463193
vt 0.785786 0.521407
vt 0.784770 0.521415
vt 0.784770 0.463202
vt 0.795690 0.456779
vt 0.795690 0.530666
vt 0.794401 0.530677
vt 0.794401 0.456790
vt 0.802440 0.362182
vt 0.802440 0.447801
vt 0.800946 0.447813
vt 0.800946 0.362194
vt 0.792277 0.456663
vt 0.792277 0.362194
vt 0.793925 0.362182
vt 0.793925 0.456651
vt 0.784770 0.463077
vt 0.784770 0.362194
vt 0.786531 0.362182
vt 0.786531 0.463065
vt 0.778805 0.362182
vt 0.778805 0.467256
vt 0.776971 0.467269
vt 0.776971 0.362195
vt 0.774869 0.362182
vt 0.774869 0.469330
vt 0.772999 0.469343
vt 0.772999 0.362195
vt 0.769027 0.469343
vt 0.769027 0.362195
vt 0.770897 0.362182
vt 0.770897 0.469330
vt 0.778921 0.467269
vt 0.778921 0.362195
vt 0.780755 0.362182
vt 0.780755 0.467256
vt 0.790400 0.463077
vt 0.790400 0.362194
vt 0.792161 0.362182
vt 0.792161 0.463064
vt 0.797455 0.362182
vt 0.797455 0.456651
vt 0.795806 0.456663
vt 0.795806 0.362194
vt 0.800830 0.447929
vt 0.800830 0.533548
vt 0.799335 0.533560
vt 0.799335 0.447941
vt 0.793566 0.456779
vt 0.793566 0.530666
vt 0.792277 0.530676
vt 0.792277 0.456790
vt 0.637910 0.593655
vt 0.637764 0.593967
vt 0.637614 0.593657
vt 0.637467 0.592736
vt 0.637329 0.591241
vt 0.637205 0.589228
vt 0.637099 0.586775
vt 0.637016 0.583977
vt 0.636958 0.580940
vt 0.636929 0.577782
vt 0.636929 0.574624
vt 0.636958 0.571587
vt 0.637016 0.568788
vt 0.637099 0.566335
vt 0.637205 0.564321
vt 0.637329 0.562824
vt 0.637467 0.561902
vt 0.637614 0.561591
vt 0.637764 0.561901
vt 0.637910 0.562822
vt 0.638049 0.564317
vt 0.638173 0.566330
vt 0.638279 0.568782
vt 0.638362 0.571581
vt 0.638419 0.574617
vt 0.638449 0.577775
vt 0.638449 0.580934
vt 0.638419 0.583970
vt 0.638362 0.586769
vt 0.638279 0.589223
vt 0.638173 0.591237
vt 0.638049 0.592733
vt 0.788795 0.463193
vt 0.788795 0.521406
vt 0.787779 0.521415
vt 0.787779 0.463202
vt 0.771845 0.469459
vt 0.771845 0.504851
vt 0.771228 0.504856
vt 0.771228 0.469465
vt 0.755265 0.501628
vt 0.755347 0.501801
vt 0.755424 0.502316
vt 0.755494 0.503151
vt 0.755553 0.504274
vt 0.755599 0.505643
vt 0.755631 0.507204
vt 0.755647 0.508898
vt 0.755647 0.510660
vt 0.755631 0.512421
vt 0.755599 0.514115
vt 0.755553 0.515676
vt 0.755494 0.517045
vt 0.755424 0.518167
vt 0.755347 0.519001
vt 0.755265 0.519515
vt 0.755182 0.519688
vt 0.755100 0.519514
vt 0.755023 0.519000
vt 0.754954 0.518165
vt 0.754894 0.517042
vt 0.754848 0.515673
vt 0.754816 0.514112
vt 0.754800 0.512418
vt 0.754800 0.510656
vt 0.754816 0.508894
vt 0.754848 0.507200
vt 0.754894 0.505639
vt 0.754953 0.504271
vt 0.755023 0.503148
vt 0.755100 0.502314
vt 0.755182 0.501801
vt 0.698780 0.551881
vt 0.628765 0.434073
vt 0.697740 0.362182
vt 0.698780 0.363602
vt 0.768911 0.551881
vt 0.698896 0.434073
vt 0.767871 0.362182
vt 0.768911 0.363602
vn -1.0000 -0.0000 0.0000
vn 1.0000 0.0000 -0.0000
vn 0.0000 1.0000 0.0000
vn 0.0000 -1.0000 0.0008
vn 0.0000 0.4484 0.8938
vn 0.0000 0.4808 -0.8768
vn 0.9028 0.0000 -0.4302
vn 0.9882 0.0000 -0.1529
vn 0.9962 0.0000 -0.0875
vn 0.9984 0.0000 -0.0571
vn 0.9993 0.0000 -0.0385
vn 0.9997 0.0000 -0.0251
vn 0.9999 0.0000 -0.0142
vn 1.0000 0.0000 -0.0046
vn 1.0000 0.0000 0.0046
vn 0.9999 0.0000 0.0142
vn 0.9997 0.0000 0.0251
vn 0.9993 0.0000 0.0385
vn 0.9984 0.0000 0.0571
vn 0.9962 0.0000 0.0875
vn 0.9882 0.0000 0.1529
vn 0.9028 0.0000 0.4302
vn -0.9028 0.0000 0.4302
vn -0.9882 -0.0000 0.1529
vn -0.9962 -0.0000 0.0875
vn -0.9984 -0.0000 0.0571
vn -0.9993 0.0000 0.0385
vn -0.9997 0.0000 0.0251
vn -0.9999 -0.0000 0.0142
vn -1.0000 -0.0000 0.0046
vn -1.0000 -0.0000 -0.0046
vn -0.9999 0.0000 -0.0142
vn -0.9997 0.0000 -0.0251
vn -0.9993 0.0000 -0.0385
vn -0.9984 -0.0000 -0.0571
vn -0.9962 -0.0000 -0.0875
vn -0.9882 -0.0000 -0.1529
vn -0.9028 -0.0000 -0.4302
vn 0.0000 -1.0000 0.0000
usemtl Barco
s off
f 1/1/1 3/2/1 4/3/1 2/4/1
f 5/5/2 6/6/2 8/7/2 7/8/2
f 2/9/3 4/10/3 8/11/3 6/12/3
f 3/13/4 1/14/4 5/15/4 7/16/4
f 4/17/5 3/18/5 7/19/5 8/20/5
f 1/21/6 2/22/6 6/23/6 5/24/6
f 1/25/1 3/26/1 10/27/1 9/28/1
f 11/29/7 12/30/7 14/31/7 13/32/7
f 13/33/8 14/34/8 16/35/8 15/36/8
f 15/37/9 16/38/9 18/39/9 17/40/9
f 17/41/10 18/42/10 20/43/10 19/44/10
f 19/45/11 20/46/11 22/47/11 21/48/11
f 21/49/12 22/50/12 24/51/12 23/52/12
f 23/53/13 24/54/13 26/55/13 25/56/13
f 25/57/14 26/58/14 28/59/14 27/60/14
f 27/61/15 28/62/15 30/63/15 29/64/15
f 29/65/16 30/66/16 32/67/16 31/68/16
f 31/69/17 32/70/17 34/71/17 33/72/17
f 33/73/18 34/74/18 36/75/18 35/76/18
f 35/77/19 36/78/19 38/79/19 37/80/19
f 37/81/20 38/82/20 40/83/20 39/84/20
f 39/85/21 40/86/21 42/87/21 41/88/21
f 41/89/22 42/90/22 44/91/22 43/92/22
f 43/93/23 44/94/23 46/95/23 45/96/23
f 45/97/24 46/98/24 48/99/24 47/100/24
f 47/101/25 48/102/25 50/103/25 49/104/25
f 49/105/26 50/106/26 52/107/26 51/108/26
f 51/109/27 52/110/27 54/111/27 53/112/27
f 53/113/28 54/114/28 56/115/28 55/116/28
f 55/117/29 56/118/29 58/119/29 57/120/29
f 57/121/30 58/122/30 60/123/30 59/124/30
f 59/125/31 60/126/31 62/127/31 61/128/31
f 61/129/32 62/130/32 64/131/32 63/132/32
f 63/133/33 64/134/33 66/135/33 65/136/33
f 65/137/34 66/138/34 68/139/34 67/140/34
f 67/141/35 68/142/35 70/143/35 69/144/35
f 69/145/36 70/146/36 72/147/36 71/148/36
f 14/149/3 12/150/3 74/151/3 72/152/3 70/153/3 68/154/3 66/155/3 64/156/3 62/157/3 60/158/3 58/159/3 56/160/3 54/161/3 52/162/3 50/163/3 48/164/3 46/165/3 44/166/3 42/167/3 40/168/3 38/169/3 36/170/3 34/171/3 32/172/3 30/173/3 28/174/3 26/175/3 24/176/3 22/177/3 20/178/3 18/179/3 16/180/3
f 71/181/37 72/182/37 74/183/37 73/184/37
f 73/185/38 74/186/38 12/187/38 11/188/38
f 11/189/39 13/190/39 15/191/39 17/192/39 19/193/39 21/194/39 23/195/39 25/196/39 27/197/39 29/198/39 31/199/39 33/200/39 35/201/39 37/202/39 39/203/39 41/204/39 43/205/39 45/206/39 47/207/39 49/208/39 51/209/39 53/210/39 55/211/39 57/212/39 59/213/39 61/214/39 63/215/39 65/216/39 67/217/39 69/218/39 71/219/39 73/220/39
f 75/221/2 76/222/2 77/223/2 78/224/2
f 79/225/1 80/226/1 81/227/1 82/228/1
