# Blender v2.91.0 OBJ File: 'Chimenea.blend'
# www.blender.org
mtllib Chimenea.mtl
o Plano
v -1.984754 0.000000 1.984754
v 1.984754 0.000000 1.984754
v -1.984754 0.000000 -1.984754
v 1.984754 0.000000 -1.984754
v -1.984754 0.071124 1.984754
v 1.984754 0.071124 1.984754
v -1.984754 0.071124 -1.984754
v 1.984754 0.071124 -1.984754
v -1.984754 0.071124 1.984754
v 1.094965 0.071124 1.984754
v -1.984754 0.071124 -1.984754
v 1.094965 0.071124 -1.984754
v -1.984754 2.934327 1.984754
v 1.094965 2.934327 1.984754
v -1.984754 2.934327 -1.984754
v 1.094965 2.934327 -1.984754
v 1.094965 0.399035 1.087413
v 1.094965 0.399035 -1.087413
v 1.094965 2.606416 1.087413
v 1.094965 2.606416 -1.087413
v -0.861330 0.399035 1.087413
v -0.861330 0.399035 -1.087413
v -0.861330 2.606416 1.087413
v -0.861330 2.606416 -1.087413
v -1.984754 2.605409 -1.984754
v 1.094965 2.605409 -1.984754
v 1.094965 2.605409 1.984754
v -1.984754 2.605409 1.984754
v 1.094965 2.605409 -1.087413
v 1.094965 2.605409 1.087413
v -0.861330 2.605409 -1.087413
v -0.861330 2.605409 1.087413
v 1.094319 2.934327 1.984754
v 1.094319 2.934327 -1.984754
v 1.094319 2.605409 1.984754
v 1.094319 2.606416 1.087413
v 1.094319 2.606416 -1.087413
v 1.094319 2.605409 1.087413
v 1.094319 2.605409 -1.984754
v 1.094319 2.605409 -1.087413
v 1.341046 2.934327 1.984754
v 1.341046 2.934327 -1.984754
v 1.098921 2.605409 1.984754
v 1.098921 2.606416 1.087413
v 1.098921 2.606416 -1.087413
v 1.098921 2.605409 1.087413
v 1.098921 2.605409 -1.984754
v 1.098921 2.605409 -1.087413
v -1.984754 3.503190 -1.984754
v -1.984754 3.503190 1.984754
v 1.094965 3.503190 1.984754
v 1.094965 3.503190 -1.984754
v 1.094319 3.503190 1.984754
v 1.094319 3.503190 -1.984754
v 1.341046 3.503190 1.984754
v 1.341046 3.503190 -1.984754
v -2.169930 3.503190 -2.139755
v -2.169930 3.503190 2.139755
v 1.150301 3.503190 2.139755
v 1.150301 3.503190 -2.139755
v 1.149605 3.503190 2.139755
v 1.149605 3.503190 -2.139755
v 1.415600 3.503190 2.139755
v 1.415600 3.503190 -2.139755
v -2.169930 3.783264 -2.139755
v -2.169930 3.783264 2.139755
v 1.150301 3.783264 2.139755
v 1.150301 3.783264 -2.139755
v 1.149605 3.783264 2.139755
v 1.149605 3.783264 -2.139755
v 1.415600 3.783264 2.139755
v 1.415600 3.783264 -2.139755
v -2.327380 3.783264 -2.271548
v -2.327380 3.783264 2.271548
v 1.197352 3.783264 2.271548
v 1.197352 3.783264 -2.271548
v 1.196613 3.783264 2.271548
v 1.196613 3.783264 -2.271548
v 1.478992 3.783264 2.271548
v 1.478992 3.783264 -2.271548
v -2.327380 3.898973 -2.271548
v -2.327380 3.898973 2.271548
v 1.197352 3.898973 2.271548
v 1.197352 3.898973 -2.271548
v 1.196613 3.898973 2.271548
v 1.196613 3.898973 -2.271548
v 1.478992 3.898973 2.271548
v 1.478992 3.898973 -2.271548
v -2.027007 3.898973 -1.884391
v -2.027007 3.898973 1.884391
v 0.896979 3.898973 1.884391
v 0.896979 3.898973 -1.884391
v -2.027007 9.717595 -1.884391
v -2.027007 9.717595 1.884391
v 0.896979 9.717595 1.884391
v 0.896979 9.717595 -1.884391
v -1.984754 0.000000 1.984754
v 1.984754 0.000000 1.984754
v -1.984754 0.000000 -1.984754
v 1.984754 0.000000 -1.984754
v -1.984754 0.071124 1.984754
v 1.984754 0.071124 1.984754
v -1.984754 0.071124 -1.984754
v 1.984754 0.071124 -1.984754
vt 0.768265 0.985606
vt 0.021791 0.985606
vt 0.021791 0.038465
vt 0.768265 0.038465
vt 0.060317 0.475166
vt 0.698489 0.475166
vt 0.698489 0.677406
vt 0.060317 0.677406
vt 0.002598 0.546852
vt 0.784877 0.546849
vt 0.784877 0.593776
vt 0.002598 0.593776
vt 0.871207 0.590010
vt 0.881745 0.590010
vt 0.881745 0.591136
vt 0.871207 0.591136
vt 0.999398 0.245434
vt 0.999398 0.494075
vt 0.995059 0.494075
vt 0.995059 0.245434
vt 0.989516 0.494075
vt 0.989517 0.245434
vt 0.993856 0.245434
vt 0.993856 0.494039
vt 0.992970 0.801721
vt 0.997308 0.553156
vt 0.997308 0.801761
vt 0.992969 0.801796
vt 0.968685 0.675920
vt 0.831954 0.675920
vt 0.831954 0.635662
vt 0.968685 0.635662
vt 0.881745 0.592265
vt 0.871207 0.592265
vt 0.871207 0.591140
vt 0.881745 0.591140
vt 0.354098 0.000059
vt 0.354098 0.999940
vt 0.000059 0.870566
vt 0.000060 0.000060
vt 0.869807 0.603598
vt 0.883391 0.603598
vt 0.883391 0.604724
vt 0.869807 0.604724
vt 0.595769 0.734981
vt 0.595400 0.734975
vt 0.595400 0.713835
vt 0.595769 0.713841
vt 0.662528 0.372085
vt 0.662528 0.365142
vt 0.662649 0.365141
vt 0.662649 0.372084
vt 0.784323 0.248397
vt 0.001462 0.248397
vt 0.178434 0.013322
vt 0.607350 0.013322
vt 0.369198 0.370909
vt 0.369198 0.370845
vt 0.369239 0.370845
vt 0.369239 0.370909
vt 0.733796 0.323229
vt 0.733796 0.345515
vt 0.733407 0.345518
vt 0.733407 0.323233
vt 0.006907 0.015561
vt 0.793113 0.015561
vt 0.793113 0.993584
vt 0.006907 0.993584
vt 0.787413 0.015864
vt 0.787413 0.999720
vt 0.005556 0.999720
vt 0.005556 0.015863
vt 0.846514 0.126333
vt 0.962404 0.126333
vt 0.962404 0.271244
vt 0.846514 0.271244
vt 0.594197 0.734981
vt 0.593828 0.734975
vt 0.593828 0.713835
vt 0.594197 0.713841
vt 0.791973 1.002302
vt 0.000747 1.002302
vt 0.000747 0.011338
vt 0.791973 0.011338
vt 0.354098 0.000059
vt 0.354098 0.999940
vt 0.000059 0.999940
vt 0.000060 0.129434
vt 0.783393 0.020881
vt 0.783393 0.994702
vt 0.013482 0.994702
vt 0.013482 0.020881
vt 0.000355 0.001112
vt 0.790031 0.001112
vt 0.790031 0.998006
vt 0.000355 0.998006
vt 0.710375 0.375142
vt 0.710375 0.386610
vt 0.710175 0.386611
vt 0.710175 0.375144
vt 0.793317 0.996399
vt 0.000848 0.996399
vt 0.000848 0.002930
vt 0.793317 0.002930
vt 0.008128 0.017094
vt 0.789732 0.017094
vt 0.789732 0.994787
vt 0.008128 0.994787
vt 0.733941 0.291412
vt 0.733941 0.322022
vt 0.733407 0.322026
vt 0.733407 0.291416
vt 0.874558 0.592273
vt 0.874558 0.593396
vt 0.874538 0.593396
vt 0.873716 0.592270
vt 0.369737 0.369579
vt 0.369737 0.369642
vt 0.369447 0.369642
vt 0.369447 0.369579
vt 0.708972 0.375142
vt 0.708972 0.386610
vt 0.708772 0.386611
vt 0.708772 0.375144
vt 0.367954 0.367955
vt 0.392074 0.367955
vt 0.392074 0.368376
vt 0.367954 0.368376
vt 0.367954 0.370909
vt 0.367954 0.370845
vt 0.367995 0.370845
vt 0.367995 0.370909
vt 0.690490 0.351717
vt 0.690490 0.369570
vt 0.690179 0.369573
vt 0.690179 0.351720
vt 0.663973 0.365141
vt 0.663973 0.372084
vt 0.663852 0.372085
vt 0.663852 0.365142
vt 0.871202 0.590010
vt 0.871202 0.603594
vt 0.869807 0.600523
vt 0.869807 0.593081
vt 0.872461 0.592838
vt 0.873711 0.592270
vt 0.873711 0.595584
vt 0.873663 0.595605
vt 0.872457 0.595605
vt 0.871207 0.595037
vt 0.872409 0.592270
vt 0.872457 0.592292
vt 0.874558 0.593400
vt 0.874558 0.594523
vt 0.873716 0.594526
vt 0.874538 0.593400
vt 0.732204 0.291412
vt 0.732204 0.339065
vt 0.731372 0.339073
vt 0.731372 0.291419
vt 0.869464 0.594409
vt 0.868939 0.594409
vt 0.868939 0.593200
vt 0.869464 0.593200
vt 0.729394 0.280690
vt 0.729394 0.311300
vt 0.728860 0.311304
vt 0.728860 0.280694
vt 0.368244 0.369579
vt 0.368244 0.369642
vt 0.367954 0.369642
vt 0.367954 0.369579
vt 0.979004 0.229402
vt 0.978961 0.011792
vt 0.982952 0.000602
vt 0.982952 0.237884
vt 0.846028 0.594198
vt 0.846028 0.595133
vt 0.845440 0.595416
vt 0.845440 0.594407
vt 0.874958 0.593198
vt 0.868413 0.593198
vt 0.868413 0.591989
vt 0.874958 0.591989
vt 0.868937 0.594409
vt 0.868413 0.594409
vt 0.868413 0.593200
vt 0.868937 0.593200
vt 0.902014 0.620736
vt 0.910272 0.620736
vt 0.910272 0.621920
vt 0.902014 0.621920
vt 0.868413 0.590778
vt 0.876849 0.590778
vt 0.876849 0.591987
vt 0.868413 0.591987
vt 0.845509 0.599852
vt 0.931173 0.599852
vt 0.931173 0.612128
vt 0.845509 0.612128
vt 0.876169 0.591989
vt 0.876169 0.598534
vt 0.874960 0.598534
vt 0.874960 0.591989
vt 0.878171 0.597970
vt 0.878171 0.597091
vt 0.879097 0.597091
vt 0.879097 0.597970
vt 0.882370 0.598860
vt 0.882370 0.587883
vt 0.883296 0.587883
vt 0.883296 0.598860
vt 0.917379 0.591736
vt 0.917383 0.615309
vt 0.916951 0.616520
vt 0.916951 0.590818
vt 0.843269 0.609840
vt 0.843269 0.594786
vt 0.843971 0.594198
vt 0.843971 0.610428
vt 0.845440 0.596354
vt 0.845440 0.595419
vt 0.846028 0.595628
vt 0.846028 0.596637
vt 0.845155 0.609840
vt 0.845155 0.594786
vt 0.845437 0.594198
vt 0.845437 0.610428
vt 0.844562 0.594408
vt 0.844562 0.606088
vt 0.843974 0.606790
vt 0.843974 0.594198
vt 0.845152 0.594900
vt 0.845152 0.606580
vt 0.844564 0.606790
vt 0.844564 0.594198
vt 0.910602 0.882029
vt 0.910601 0.869877
vt 0.910821 0.869419
vt 0.910821 0.882403
vt 0.896977 0.870255
vt 0.896977 0.869419
vt 0.897391 0.869567
vt 0.897391 0.870454
vt 0.845509 0.612142
vt 0.937863 0.612142
vt 0.937863 0.618186
vt 0.845509 0.618186
vt 0.910272 0.620735
vt 0.901369 0.620735
vt 0.901369 0.620152
vt 0.910272 0.620152
vt 0.885168 0.584711
vt 0.885168 0.598860
vt 0.884242 0.598860
vt 0.884242 0.584711
vt 0.878171 0.598860
vt 0.878171 0.597980
vt 0.879097 0.597980
vt 0.879097 0.598860
vt 0.886104 0.584711
vt 0.886104 0.598860
vt 0.885178 0.598860
vt 0.885178 0.584711
vt 0.883306 0.598860
vt 0.883306 0.587883
vt 0.884232 0.587883
vt 0.884232 0.598860
vt 0.911242 0.869412
vt 0.896977 0.869412
vt 0.896977 0.869049
vt 0.911242 0.869049
vt 0.910272 0.620151
vt 0.900820 0.620151
vt 0.900820 0.619910
vt 0.910272 0.619910
vt 0.910828 0.880339
vt 0.910828 0.869914
vt 0.911242 0.880487
vt 0.911249 0.879251
vt 0.911249 0.868827
vt 0.911663 0.868679
vt 0.911663 0.879746
vt 0.878661 0.597081
vt 0.878661 0.596201
vt 0.879097 0.595992
vt 0.879097 0.596925
vt 0.910270 0.612666
vt 0.910272 0.619554
vt 0.910146 0.619908
vt 0.910146 0.612455
vt 0.879514 0.587346
vt 0.879518 0.598297
vt 0.879317 0.598860
vt 0.879317 0.587010
vt 0.910026 0.893604
vt 0.910026 0.880167
vt 0.910520 0.879753
vt 0.910520 0.894018
vt 0.894804 0.882944
vt 0.894804 0.868679
vt 0.895747 0.869894
vt 0.895747 0.881728
vt 0.910019 0.880640
vt 0.895754 0.880640
vt 0.895754 0.879753
vt 0.910019 0.879753
vt 0.896977 0.870831
vt 0.897863 0.870831
vt 0.897863 0.871194
vt 0.896977 0.871194
vt 0.911242 0.869042
vt 0.896977 0.869042
vt 0.896977 0.868679
vt 0.911242 0.868679
vt 0.912033 0.868679
vt 0.912033 0.879746
vt 0.911670 0.879746
vt 0.911670 0.868679
vt 0.912403 0.868679
vt 0.912403 0.879746
vt 0.912040 0.879746
vt 0.912040 0.868679
vt 0.897863 0.870824
vt 0.896977 0.870824
vt 0.896977 0.870461
vt 0.897863 0.870461
vt 0.943553 0.620698
vt 0.845509 0.620698
vt 0.845509 0.618201
vt 0.943553 0.618201
vt 0.919551 0.431782
vt 0.906485 0.431782
vt 0.906485 0.405782
vt 0.919551 0.405782
vt 0.894797 0.868679
vt 0.894797 0.882944
vt 0.893854 0.881728
vt 0.893854 0.869894
vt 0.888684 0.587206
vt 0.888684 0.598860
vt 0.887404 0.597866
vt 0.887404 0.588199
vt 0.895754 0.879746
vt 0.895754 0.868679
vt 0.896970 0.869622
vt 0.896970 0.878803
vt 0.902691 0.431801
vt 0.902691 0.444866
vt 0.885851 0.444866
vt 0.885851 0.431801
vt 0.872766 0.431801
vt 0.885832 0.431801
vt 0.885832 0.457801
vt 0.872766 0.457801
vt 0.889607 0.431782
vt 0.872766 0.431782
vt 0.872766 0.405782
vt 0.889607 0.405782
vt 0.889626 0.431782
vt 0.889626 0.405782
vt 0.021939 0.141852
vt 0.774238 0.141851
vt 0.774238 0.159767
vt 0.021939 0.159767
vt 0.021939 0.123856
vt 0.774238 0.123854
vt 0.774238 0.141771
vt 0.021939 0.141771
vt 0.021939 0.105859
vt 0.774238 0.105858
vt 0.774238 0.123774
vt 0.021939 0.123774
vn 0.0000 -1.0000 0.0000
vn 0.0000 1.0000 0.0000
vn 1.0000 0.0000 0.0000
vn 0.0000 0.0000 -1.0000
vn 0.0000 0.0000 1.0000
vn -1.0000 0.0000 0.0000
vn 0.8045 -0.5940 0.0000
vn 0.8062 -0.5917 0.0007
vn 0.8062 -0.5917 -0.0007
usemtl Chimenea
s off
f 1/1/1 3/2/1 4/3/1 2/4/1
f 6/5/2 8/6/2 12/7/2 10/8/2
f 2/9/3 4/10/3 8/11/3 6/12/3
f 26/13/4 25/14/4 15/15/4 16/16/4
f 7/17/5 5/18/5 9/19/5 11/20/5
f 8/21/4 7/22/4 11/23/4 12/24/4
f 5/25/5 6/26/5 10/27/5 9/28/5
f 41/29/3 42/30/3 56/31/3 55/32/3
f 28/33/5 27/34/5 14/35/5 13/36/5
f 27/37/3 10/38/3 17/39/3 30/40/3
f 25/41/6 28/42/6 13/43/6 15/44/6
f 29/45/5 20/46/5 24/47/5 31/48/5
f 14/49/4 27/50/4 35/51/4 33/52/4
f 10/53/3 12/54/3 18/55/3 17/56/3
f 20/57/4 29/58/4 40/59/4 37/60/4
f 32/61/3 31/62/3 24/63/3 23/64/3
f 17/65/2 18/66/2 22/67/2 21/68/2
f 30/69/4 17/70/4 21/71/4 32/72/4
f 20/73/1 19/74/1 23/75/1 24/76/1
f 19/77/4 30/78/4 32/79/4 23/80/4
f 21/81/3 22/82/3 31/83/3 32/84/3
f 12/85/3 26/86/3 29/87/3 18/88/3
f 18/89/5 29/90/5 31/91/5 22/92/5
f 11/93/6 9/94/6 28/95/6 25/96/6
f 29/97/2 26/98/2 39/99/2 40/100/2
f 9/101/5 10/102/5 27/103/5 28/104/5
f 12/105/4 11/106/4 25/107/4 26/108/4
f 40/109/1 39/110/1 47/111/1 48/112/1
f 33/113/5 35/114/5 43/115/5 41/116/5
f 38/117/4 36/118/4 44/119/4 46/120/4
f 27/121/2 30/122/2 38/123/2 35/124/2
f 16/125/1 14/126/1 33/127/1 34/128/1
f 30/129/5 19/130/5 36/131/5 38/132/5
f 19/133/2 20/134/2 37/135/2 36/136/2
f 26/137/5 16/138/5 34/139/5 39/140/5
f 42/141/7 41/142/7 44/143/7 45/144/7
f 47/145/8 42/146/8 45/147/8 48/148/8
f 41/149/9 43/150/9 46/151/9 44/152/9
f 39/153/4 34/154/4 42/155/4 47/156/4
f 36/157/1 37/158/1 45/159/1 44/160/1
f 33/161/5 41/162/5 55/163/5 53/164/5
f 35/165/1 38/166/1 46/167/1 43/168/1
f 37/169/5 40/170/5 48/171/5 45/172/5
f 54/173/2 53/174/2 61/175/2 62/176/2
f 53/177/1 55/178/1 63/179/1 61/180/1
f 13/181/5 14/182/5 51/183/5 50/184/5
f 42/185/4 34/186/4 54/187/4 56/188/4
f 14/189/3 16/190/3 52/191/3 51/192/3
f 15/193/6 13/194/6 50/195/6 49/196/6
f 34/197/6 33/198/6 53/199/6 54/200/6
f 16/201/4 15/202/4 49/203/4 52/204/4
f 61/205/5 63/206/5 71/207/5 69/208/5
f 58/209/5 59/210/5 67/211/5 66/212/5
f 51/213/1 52/214/1 60/215/1 59/216/1
f 49/217/1 50/218/1 58/219/1 57/220/1
f 56/221/1 54/222/1 62/223/1 64/224/1
f 55/225/1 56/226/1 64/227/1 63/228/1
f 52/229/1 49/230/1 57/231/1 60/232/1
f 50/233/1 51/234/1 59/235/1 58/236/1
f 71/237/1 72/238/1 80/239/1 79/240/1
f 72/241/1 70/242/1 78/243/1 80/244/1
f 62/245/6 61/246/6 69/247/6 70/248/6
f 59/249/3 60/250/3 68/251/3 67/252/3
f 57/253/6 58/254/6 66/255/6 65/256/6
f 64/257/4 62/258/4 70/259/4 72/260/4
f 63/261/3 64/262/3 72/263/3 71/264/3
f 60/265/4 57/266/4 65/267/4 68/268/4
f 73/269/6 74/270/6 82/271/6 81/272/6
f 75/273/3 76/274/3 84/275/3 83/276/3
f 68/277/1 65/278/1 73/269/1 76/279/1
f 66/280/1 67/281/1 75/282/1 74/283/1
f 69/284/1 71/285/1 79/286/1 77/287/1
f 70/288/2 69/289/2 77/290/2 78/291/2
f 67/292/1 68/293/1 76/294/1 75/295/1
f 65/296/1 66/297/1 74/298/1 73/299/1
f 83/300/2 84/301/2 92/302/2 91/303/2
f 86/304/2 85/305/2 87/306/2 88/307/2
f 80/308/4 78/309/4 86/310/4 88/311/4
f 79/312/3 80/313/3 88/314/3 87/315/3
f 76/316/4 73/317/4 81/318/4 84/319/4
f 74/320/5 75/321/5 83/322/5 82/323/5
f 77/324/5 79/325/5 87/326/5 85/327/5
f 78/328/6 77/329/6 85/330/6 86/331/6
f 92/332/4 89/333/4 93/334/4 96/335/4
f 81/336/2 82/337/2 90/338/2 89/339/2
f 84/340/2 81/341/2 89/342/2 92/343/2
f 82/344/2 83/345/2 91/346/2 90/347/2
f 94/348/2 95/349/2 96/350/2 93/351/2
f 90/352/5 91/353/5 95/354/5 94/355/5
f 91/356/3 92/357/3 96/358/3 95/359/3
f 89/333/6 90/360/6 94/361/6 93/334/6
f 99/362/6 97/363/6 101/364/6 103/365/6
f 100/366/4 99/367/4 103/368/4 104/369/4
f 97/370/5 98/371/5 102/372/5 101/373/5
